<svg xmlns="http://www.w3.org/2000/svg" width="48" height="48" version="1.1" viewBox="0 0 48 48"><defs><linearGradient id="b" x1="-26" x2="-26" y1="-38" y2="-13" gradientTransform="translate(50,50)" gradientUnits="userSpaceOnUse"><stop offset="0" stop-color="#ccc"/><stop offset=".75" stop-color="#999"/><stop offset="1" stop-color="#555"/></linearGradient><linearGradient id="a" x1="24" x2="24" y1="13" y2="37" gradientUnits="userSpaceOnUse"><stop offset="0" stop-color="#fff"/><stop offset="1" stop-color="#fff" stop-opacity="0"/></linearGradient></defs><path fill="url(#b)" stroke="#555" d="m13.5 14.5c-2.7359 0-5 2.2641-5 5v9.0625c0 2.7359 2.2641 5 5 5h5v-4h-5c-0.58909 0-1-0.41091-1-1v-9.062c0-0.58909 0.41091-1 1-1h21c0.58909 0 1 0.41091 1 1v9.0625c0 0.58909-0.41091 1-1 1h-5v-3.062l-7 5 7 5v-2.9375h5c2.7359 0 5-2.2641 5-5v-9.062c0-2.7359-2.2641-5-5-5z"/><path fill="none" stroke="url(#a)" stroke-width=".8" d="m13.5 15.406c-2.2359 0-4.0938 1.8578-4.0938 4.0938v9.0625c0 2.2359 1.8578 4.0938 4.0938 4.0938h4.0938v-2.187h-4.094c-1.0105 0-1.9062-0.89573-1.9062-1.9062v-9.0625c0-1.0105 0.89573-1.9062 1.9062-1.9062h21c1.0105 0 1.9062 0.89574 1.9062 1.9062v9.0625c0 1.0105-0.89573 1.9062-1.9062 1.9062h-5a0.90634 0.90634 0 0 1 -0.906 -0.906v-1.2812l-4.5 3.2188 4.5 3.2188v-1.1562a0.90634 0.90634 0 0 1 0.906 -0.906h5c2.2359 0 4.0937-1.8578 4.0938-4.0938v-9.062c0-2.2359-1.8578-4.0938-4.0938-4.0938h-21z" opacity=".6"/></svg>