<svg xmlns="http://www.w3.org/2000/svg" xmlns:xlink="http://www.w3.org/1999/xlink" id="svg7429" width="48" height="48" version="1.1"><defs id="defs7431"><radialGradient id="radialGradient4706" cx="10.269" cy="37.355" r="2.188" gradientTransform="matrix(3.4951 .045473 -.013009 .99992 -25.421 -.46379)" gradientUnits="userSpaceOnUse"><stop id="stop2926" offset="0" stop-color="#fff"/><stop id="stop2928" offset="1" stop-color="#fff" stop-opacity="0"/></radialGradient><radialGradient id="radialGradient3668" cx="30.428" cy="45.153" r="13.474" gradientTransform="matrix(1 0 0 .20188 0 36.038)" gradientUnits="userSpaceOnUse"><stop id="stop5921" offset="0"/><stop id="stop5923" offset="1" stop-opacity="0"/></radialGradient></defs><metadata id="metadata7434"/><g id="layer1"><g id="g4646" transform="matrix(.88857 0 0 .93391 -46.18 -49.177)"><rect id="rect4648" width="13.589" height="3.113" x="-.95" y="112.9" fill="#eeeeec" stroke="#c2c2c2" stroke-linecap="round" stroke-linejoin="round" stroke-width=".5" rx="1.514" ry="1.399" transform="matrix(.85333 -.52137 .54466 .83866 0 0)"/><g id="g4650"><rect id="rect4652" width="9.585" height="2.539" x="-5.261" y="113.35" fill="#fff" stroke="#c2c2c2" stroke-linecap="round" stroke-linejoin="round" stroke-width=".553" rx="1.113" ry="1.215" transform="matrix(.84430 -.53587 .57734 .81651 0 0)"/><path id="path4654" fill="#c2c2c2" d="m18.788 41.231c0 2.795-2.2658 5.0608-5.0608 5.0608s-5.0608-2.2658-5.0608-5.0608 2.2658-5.0608 5.0608-5.0608 5.0608 2.2658 5.0608 5.0608z" transform="matrix(1.0868 0 0 1.0868 52.581 47.691)"/><path id="path4656" fill="#fff" d="m18.788 41.231c0 2.795-2.2658 5.0608-5.0608 5.0608s-5.0608-2.2658-5.0608-5.0608 2.2658-5.0608 5.0608-5.0608 5.0608 2.2658 5.0608 5.0608z" transform="matrix(.93452 0 0 .93452 54.592 53.995)"/><g id="g4658" transform="matrix(1.0035 0 0 .96909 -.22181 2.7285)"><path id="path4660" fill="#8d8d8d" d="m18.788 41.231c0 2.795-2.2658 5.0608-5.0608 5.0608s-5.0608-2.2658-5.0608-5.0608 2.2658-5.0608 5.0608-5.0608 5.0608 2.2658 5.0608 5.0608z" transform="matrix(.78752 0 0 .78752 57.141 59.79)"/><path id="path4662" fill="url(#radialGradient4706)" d="m13 38.25c0 1.2081-0.97938 2.1875-2.1875 2.1875s-2.1875-0.97938-2.1875-2.1875 0.97938-2.1875 2.1875-2.1875 2.1875 0.97938 2.1875 2.1875z" opacity=".467" transform="matrix(1.7568 0 0 1.7568 49.133 25.125)"/></g></g></g><path id="path5261" fill="url(#radialGradient3668)" d="m43.903 45.153a13.474 2.7202 0 1 1 -26.949 0 13.474 2.7202 0 1 1 26.949 0z" opacity=".45" transform="matrix(.62647 0 0 2.1518 3.6092 -55.999)"/><rect id="rect5391" width="15.958" height="41.506" x="14.691" y="2.224" fill="#fab7b7" stroke="#a40000" stroke-linecap="round" stroke-linejoin="round" stroke-width=".947" rx="1.44" ry="1.645"/><rect id="rect5399" width="12.214" height="16.651" x="16.565" y="4.367" fill="#eaeef9" stroke="#636363" stroke-linecap="round" stroke-linejoin="round" stroke-width="1.15" rx=".435" ry=".855"/><rect id="rect3672" width="11.021" height="1.516" x="17.149" y="4.886" fill="#fff"/><rect id="rect5407" width="1.745" height="1.516" x="25.725" y="4.886" fill="#fab7b7" rx=".435" ry="0"/><rect id="rect5409" width="6.107" height="1.516" x="21.363" y="8.136" fill="#8d8d8d" rx="0" ry="1.875"/><rect id="rect5411" width="6.107" height="1.52" x="21.363" y="11.163" fill="#8d8d8d" rx="0" ry="1.875"/><rect id="rect5417" width="5.235" height="1.516" x="19.618" y="4.886" fill="#8d8d8d" rx="0" ry="1.875"/><rect id="rect5419" width="2.618" height="1.516" x="17.873" y="17.229" fill="#8d8d8d" rx="0" ry="1.875"/><rect id="rect5423" width="9.597" height="1.516" x="17.873" y="14.198" fill="#d3d7cf" rx="0" ry="1.875"/><rect id="rect5425" width="7.852" height="1.516" x="17.873" y="14.194" fill="#729fcf" rx="0" ry="1.875"/><rect id="rect5429" width="2.618" height="4.546" x="17.865" y="8.155" fill="#8f5902" rx=".435" ry=".755"/><rect id="rect5433" width="14.184" height="39.524" x="15.579" y="3.257" fill="none" stroke-opacity="0" rx=".554" ry=".633"/><rect id="rect3634" width="2.618" height="1.516" x="24.853" y="17.229" fill="#8d8d8d" rx="0" ry="1.875"/><path id="path6765" fill="#fab7b7" d="m15.113 3.7984c-0.0078-0.54086 0.46992-1.0465 0.87051-1.0637 0.45941-0.02103 12.855 0.02963 12.855 0.02963s1.4459-0.22926 1.3382 1.1621c-3.3792 3.1205-8.9202 12.481-8.4948 18.163 0.92896 12.27-6.562 20.121-6.562 20.121s0.0095-36.58-0.0073-38.412z" opacity=".379"/><path id="path5395" fill="#fff" d="m33.234 26.743a7.2037 7.2037 0 1 1 -14.407 0 7.2037 7.2037 0 1 1 14.407 0z" transform="matrix(.80191 0 0 .84268 1.7987 7.2027)"/><text id="text5401" x="21.778" y="24.657" fill="#d7d7d7" font-family="Bitstream Vera Sans" font-size=".858" font-weight="bold" line-height="125%" transform="scale(.97631 1.0243)" xml:space="preserve"><tspan id="tspan5403" x="21.778" y="24.657">MENU</tspan></text><g id="g4766" fill="#d7d7d7" transform="matrix(.88857 0 0 .93391 .90382 3.1194)"><g id="g5435" fill="#d7d7d7" transform="matrix(-1.4525 0 0 1.6169 61.361 -18.66)"><g id="g5437"><path id="path5439" d="m17.25 6.2812-0.511-0.236-0.512-0.2361 0.461-0.3247 0.46-0.3248 0.051 0.5608 0.051 0.5608z" transform="matrix(.31479 -.43520 .44667 .30798 21.218 34.761)"/><path id="path5441" d="m17.25 6.2812-0.511-0.236-0.512-0.2361 0.461-0.3247 0.46-0.3248 0.051 0.5608 0.051 0.5608z" transform="matrix(.31479 -.43520 .44667 .30798 20.718 34.761)"/></g><rect id="rect5443" width=".105" height=".602" x="29.455" y="28.892" ry="0"/></g></g><g id="g4786" fill="#d7d7d7" transform="matrix(.88857 0 0 .93391 .90382 3.1194)"><g id="g4773" fill="#d7d7d7"><g id="g5445" fill="#d7d7d7" transform="matrix(1.4525 0 0 1.6169 -12.536 -18.672)"><g id="g5447"><path id="path5449" d="m17.25 6.2812-0.511-0.236-0.512-0.2361 0.461-0.3247 0.46-0.3248 0.051 0.5608 0.051 0.5608z" transform="matrix(.31479 -.43520 .44667 .30798 21.218 34.761)"/><path id="path5451" d="m17.25 6.2812-0.511-0.236-0.512-0.2361 0.461-0.3247 0.46-0.3248 0.051 0.5608 0.051 0.5608z" transform="matrix(.31479 -.43520 .44667 .30798 20.718 34.761)"/></g><rect id="rect5453" width=".105" height=".602" x="29.455" y="28.892" ry="0"/></g></g></g><g id="g4794" fill="#d7d7d7" transform="matrix(.88857 0 0 .93391 .90382 3.1194)"><g id="g4780" fill="#d7d7d7"><g id="g5455" fill="#d7d7d7" transform="matrix(1.1104 0 0 1.1247 -2.3268 -5.9844)"><path id="path5457" d="m17.25 6.2812-0.511-0.236-0.512-0.2361 0.461-0.3247 0.46-0.3248 0.051 0.5608 0.051 0.5608z" transform="matrix(.46156 -.63809 .65491 .45157 12.104 43.23)"/><rect id="rect5459" width=".154" height=".883" x="24.306" y="34.624" ry="0"/><rect id="rect5461" width=".154" height=".883" x="24.683" y="34.621" ry="0"/></g></g></g><g id="g4664" transform="matrix(.88857 0 0 .93391 -50.46 -49.177)"><path id="path4666" fill="none" stroke="#c2c2c2" stroke-linejoin="round" stroke-width="1.913" d="m97.883 96.94c6.7072-1.5557-5.8551-2.3147-6.5423-2.2331"/><path id="path4668" fill="none" stroke="#fff" stroke-width=".785" d="m97.875 96.9c6.7073-1.5557-5.8551-2.3147-6.5423-2.2331"/><g id="g4670" fill="#c2c2c2" transform="matrix(1.1484 0 0 1.1484 52.41 48.705)"><path id="path4672" d="m35.406 41.484c0 2.5284-2.0497 4.5781-4.5781 4.5781s-4.5781-2.0497-4.5781-4.5781 2.0497-4.5781 4.5781-4.5781 4.5781 2.0497 4.5781 4.5781z" transform="matrix(1.0444 0 0 1.0444 -1.6491 -1.7156)"/><path id="path4674" d="m35.406 41.484c0 2.5284-2.0497 4.5781-4.5781 4.5781s-4.5781-2.0497-4.5781-4.5781 2.0497-4.5781 4.5781-4.5781 4.5781 2.0497 4.5781 4.5781z" transform="translate(.25 .34375)"/></g><path id="path4676" fill="#eeeeec" d="m35.406 41.484c0 2.5284-2.0497 4.5781-4.5781 4.5781s-4.5781-2.0497-4.5781-4.5781 2.0497-4.5781 4.5781-4.5781 4.5781 2.0497 4.5781 4.5781z" transform="matrix(1.0282 0 0 1.0282 55.832 53.73)"/><path id="path4678" fill="#fff" d="m35.406 41.484c0 2.5284-2.0497 4.5781-4.5781 4.5781s-4.5781-2.0497-4.5781-4.5781 2.0497-4.5781 4.5781-4.5781 4.5781 2.0497 4.5781 4.5781z" transform="matrix(.98453 0 0 .98453 57.702 55.758)"/><g id="g4680" stroke="#c2c2c2" stroke-linecap="round" stroke-linejoin="round" transform="matrix(1.0078 0 0 1.0047 56.194 54.316)"><rect id="rect4682" width="13.481" height="3.088" x="20.703" y="47.137" fill="#eeeeec" stroke-width=".497" rx="1.614" ry="1.544" transform="matrix(.98590 -.16735 .19442 .98092 0 0)"/><rect id="rect4684" width="9.47" height="3.08" x="21.66" y="47.281" fill="#fff" stroke-width=".55" rx="1.359" ry="1.5" transform="matrix(.98464 -.17463 .17740 .98414 0 0)"/></g><g id="g4686" transform="matrix(1.2118 0 0 1.2118 52.901 45.217)"><path id="path4688" fill="#cacaca" d="m30.031 39.922c0 0.42284-0.34278 0.76562-0.76562 0.76562s-0.76562-0.34278-0.76562-0.76562 0.34278-0.76562 0.76562-0.76562 0.76562 0.34278 0.76562 0.76562z" transform="translate(-.34375 -.09375)"/><text id="text4690" x="-40.349" y="29.422" fill="#fff" font-family="Bitstream Vera Sans" font-size="1.317" font-weight="bold" line-height="125%" transform="rotate(-90)" xml:space="preserve"><tspan id="tspan4692" x="-40.349" y="29.422">R</tspan></text></g><path id="path4694" fill="#8d8d8d" d="m31.875 38.906c0 0.25888-0.20987 0.46875-0.46875 0.46875s-0.46875-0.20987-0.46875-0.46875 0.20987-0.46875 0.46875-0.46875 0.46875 0.20987 0.46875 0.46875z" transform="matrix(4.6483e-8 -.52508 .52508 4.6483e-8 63.942 112.12)"/><path id="path4696" fill="#8d8d8d" d="m31.875 38.906c0 0.25888-0.20987 0.46875-0.46875 0.46875s-0.46875-0.20987-0.46875-0.46875 0.20987-0.46875 0.46875-0.46875 0.46875 0.20987 0.46875 0.46875z" transform="matrix(4.6483e-8 -.52508 .52508 4.6483e-8 64.45 111.08)"/><path id="path4698" fill="#8d8d8d" d="m31.875 38.906c0 0.25888-0.20987 0.46875-0.46875 0.46875s-0.46875-0.20987-0.46875-0.46875 0.20987-0.46875 0.46875-0.46875 0.46875 0.20987 0.46875 0.46875z" transform="matrix(4.6483e-8 -.52508 .52508 4.6483e-8 65.157 110.32)"/><path id="path4700" fill="#8d8d8d" d="m31.875 38.906c0 0.25888-0.20987 0.46875-0.46875 0.46875s-0.46875-0.20987-0.46875-0.46875 0.20987-0.46875 0.46875-0.46875 0.46875 0.20987 0.46875 0.46875z" transform="matrix(4.6483e-8 -.52508 .52508 4.6483e-8 63.851 113.23)"/><path id="path4702" fill="#8d8d8d" d="m31.875 38.906c0 0.25888-0.20987 0.46875-0.46875 0.46875s-0.46875-0.20987-0.46875-0.46875 0.20987-0.46875 0.46875-0.46875 0.46875 0.20987 0.46875 0.46875z" transform="matrix(4.6483e-8 -.52508 .52508 4.6483e-8 64.121 114.32)"/><path id="path4704" fill="#8d8d8d" d="m31.875 38.906c0 0.25888-0.20987 0.46875-0.46875 0.46875s-0.46875-0.20987-0.46875-0.46875 0.20987-0.46875 0.46875-0.46875 0.46875 0.20987 0.46875 0.46875z" transform="matrix(4.6483e-8 -.52508 .52508 4.6483e-8 64.657 115.33)"/></g><path id="path4764" fill="#fab7b7" stroke="#fab7b7" stroke-width=".92" d="m27.5 27a1.5 1.5 0 1 1 -3 0 1.5 1.5 0 1 1 3 0z" transform="matrix(1.3419 0 0 1.4104 -12.216 -8.2864)"/></g></svg>