<svg xmlns="http://www.w3.org/2000/svg" xmlns:xlink="http://www.w3.org/1999/xlink" id="svg2" width="48" height="48" version="1.0"><defs id="defs4"><linearGradient id="linearGradient6853" x1="119.5" x2="102.5" y1="91.362" y2="128.36" gradientUnits="userSpaceOnUse"><stop id="stop5521" offset="0" stop-color="#88ae04"/><stop id="stop5523" offset="1" stop-color="#73a400"/></linearGradient><radialGradient id="radialGradient6855" cx="147.77" cy="120.17" r="14.451" gradientTransform="matrix(1.1318 .19770 -.17031 .97502 -125.44 -100.51)" gradientUnits="userSpaceOnUse"><stop id="stop6357" offset="0" stop-color="#23371c"/><stop id="stop6359" offset="1" stop-color="#004100"/></radialGradient><linearGradient id="linearGradient6857" x1="149.09" x2="139.16" y1="85.104" y2="106.61" gradientTransform="translate(-125.46 -77.491)" gradientUnits="userSpaceOnUse"><stop id="stop6349" offset="0" stop-color="#abd033"/><stop id="stop6351" offset="1" stop-color="#9ec02d" stop-opacity="0"/></linearGradient><filter id="filter7655" width="3.143" height="3.143" x="-1.071" y="-1.071"><feGaussianBlur id="feGaussianBlur7657" stdDeviation="20.086"/></filter><linearGradient id="linearGradient7719" x1="38.714" x2="31.113" y1="17.418" y2="15.166" gradientTransform="matrix(.99992 .012329 -.012329 .99992 .25877 -.28640)" gradientUnits="userSpaceOnUse"><stop id="stop7715" offset="0" stop-color="#193d00"/><stop id="stop7717" offset="1" stop-color="#1f4b00"/></linearGradient><linearGradient id="linearGradient7727" x1="35.709" x2="27.4" y1="25.906" y2="22.312" gradientTransform="matrix(.96506 0.0119 -.012329 .99992 1.1113 -.27589)" gradientUnits="userSpaceOnUse"><stop id="stop7723" offset="0" stop-color="#1a4300"/><stop id="stop7725" offset="1" stop-color="#215300"/></linearGradient><linearGradient id="linearGradient7735" x1="35.608" x2="23.134" y1="31.415" y2="26.433" gradientTransform="matrix(.85964 0.0106 -.012329 .99992 3.504 -.24639)" gradientUnits="userSpaceOnUse"><stop id="stop7731" offset="0" stop-color="#467700"/><stop id="stop7733" offset="1" stop-color="#518900"/></linearGradient><filter id="filter7785" width="1.179" height="1.297" x="-.089" y="-.148"><feGaussianBlur id="feGaussianBlur7787" stdDeviation="1.568"/></filter></defs><metadata id="metadata7"/><g id="layer1"><g id="g6847" transform="translate(-.29021 -.74569)"><path id="path6363" d="m135 109.86a22.5 22.5 0 1 1 -45 0 22.5 22.5 0 1 1 45 0z" filter="url(#filter7655)" opacity=".646" transform="matrix(.46667 0 0 .11111 -28.71 33.039)"/><path id="path5513" fill="url(#linearGradient6853)" d="m135 109.86a22.5 22.5 0 1 1 -45 0 22.5 22.5 0 1 1 45 0z" transform="translate(-88.71 -85.616)"/><path id="path5529" fill="url(#radialGradient6855)" fill-rule="evenodd" d="m7.6379 39.42c0.5303 0 3.6601-7.327 15.593-5.913 11.932 1.414 13.31 9.272 13.31 9.272-2.051 1.401-4.232 2.627-6.983 3.094 0 0-2.999-5.547-8.39-5.194-5.392 0.354-7.255 3.514-7.255 3.514-2.771-0.995-4.9173-2.6-6.2751-4.773z"/><path id="path5531" fill="url(#linearGradient6857)" fill-rule="evenodd" d="m2.6652 29.121c32.651-18.49 28-1.75 42-2.625-0.522-10.933-9.462-22.75-21-22.75-16.965 0.5659-21.717 16.838-21 25.375z" filter="url(#filter7785)"/></g><path id="path7661" fill="url(#linearGradient7719)" d="m10.3 11.62c-2.059 0.393-2.3574 3.735 0.465 3.693 11.212-2.112 20.284 0.186 28.905 4.513 1.138 0.553 2.978-1.797 1.35-3.067-9.703-5.145-21.059-6.881-30.72-5.139z"/><path id="path7666" fill="url(#linearGradient7727)" d="m12.304 19.145c-2.131 0.236-2.4746 3.824 0.258 3.503 9.342-1.138 15.292-0.019 23.121 3.161 1.964 1.064 3.042-2.326 1.246-3.204-8.795-3.715-15.517-3.879-24.625-3.46z"/><path id="path7668" fill="url(#linearGradient7735)" d="m14.448 25.703c-1.694 0.605-1.394 3.446 0.415 3.349 3.008-0.33 5.291-0.346 8.753 0.046 3.51 0.397 5.617 1.338 8.541 2.355 1.193 0.509 2.29-1.689 1.031-2.925-3.222-1.253-5.772-2.353-9.799-2.809-3.305-0.371-5.633-0.347-8.941-0.016z"/></g></svg>